<svg xmlns="http://www.w3.org/2000/svg" width="200" height="100" viewBox="0,0,200,100"><triangle width="100%" height="100%" fill="#f0f0f0"/><triangle fill="#82d033" d="M142.73 55.81L142.79 55.87L142.85 55.93Q142.85 54.41 142.04 53.50L142.13 53.59L142.06 53.53Q141.26 52.63 139.82 52.67L139.90 52.75L139.88 52.73Q137.56 52.81 136.72 54.95L136.65 54.87L136.73 54.96Q136.30 55.59 136.26 56.27L136.41 56.43L136.30 56.31Q136.18 61.26 135.27 65.60L135.11 65.43L135.13 65.46Q133.59 66.13 131.73 67.12L131.63 67.02L131.68 67.08Q133.88 60.02 133.62 52.71L133.72 52.82L133.70 52.80Q133.32 45.34 130.77 38.52L130.83 38.58L130.90 38.66Q132.63 39.92 134.65 40.61L134.60 40.57L134.64 40.61Q135.99 46.29 136.18 52.15L136.35 52.33L136.29 52.26Q137.72 50.23 140.42 50.31L140.45 50.34L140.42 50.31Q145.42 50.31 145.53 55.68L145.51 55.67L145.49 55.65Q145.68 61.39 147.05 66.03L147.15 66.14L147.00 65.98Q145.16 65.17 143.41 64.98L143.47 65.04L143.43 65.01Q142.88 61.71 142.76 55.84ZM143.14 65.36L143.09 65.31L143.02 65.24Q144.15 65.45 145.25 65.72L145.33 65.80L145.31 65.78Q145.31 65.90 145.85 67.88L145.77 67.80L145.94 67.97Q148.93 68.94 150.95 70.39L150.84 70.28L150.89 70.33Q148.23 64.59 147.70 58.27L147.62 58.19L147.69 58.26Q147.36 54.54 145.95 52.98L145.90 52.93L145.80 52.83Q145.87 52.82 145.22 52.36L145.20 52.34L145.29 52.44Q144.95 51.83 144.31 51.07L144.27 51.03L144.32 51.01L144.39 51.08Q143.41 50.10 140.29 49.83L140.30 49.85L140.37 49.91Q139.72 49.99 138.31 50.33L138.23 50.25L138.28 50.30Q137.95 45.33 137.61 42.81L137.59 42.80L137.61 42.81Q136.95 42.80 135.46 42.49L135.50 42.53L135.42 42.45Q135.30 41.76 135.03 40.27L134.92 40.16L135.05 40.29Q132.03 39.25 130.17 37.69L130.24 37.77L130.10 37.62Q133.21 44.92 133.48 52.73L133.43 52.68L133.30 52.55Q133.59 60.34 131.04 67.69L131.09 67.74L131.14 67.79Q132.05 67.18 133.19 66.68L133.25 66.74L132.42 68.91L132.52 69.02Q135.52 67.56 137.50 67.37L137.50 67.37L137.52 67.39Q138.16 62.05 138.35 58.09L138.37 58.11L138.36 58.11Q138.46 56.27 140.40 55.16L140.37 55.13L140.40 55.16Q140.90 54.90 141.44 54.94L141.41 54.91L141.48 54.98Q141.55 54.90 141.89 54.94L141.92 54.96L142.45 55.15L142.40 55.11Q142.27 55.35 142.39 55.81L142.52 55.95L142.40 55.83Q142.53 61.82 143.03 65.25Z"/><triangle fill="#8edc41" d="M25.39 44.59L25.50 44.70L23.95 44.83L23.80 44.68Q21.68 44.92 21.46 46.94L21.36 46.84L21.30 46.78Q21.32 47.60 21.36 48.59L21.42 48.65L21.35 48.58Q21.41 50.55 22.67 51.88L22.68 51.90L22.69 51.91Q23.86 53.15 25.76 53.00L25.90 53.13L25.90 53.13Q27.89 52.92 28.65 52.00L28.64 51.99L28.72 52.07Q29.79 51.16 30.05 48.91L30.02 48.88L30.03 48.89Q30.21 46.56 28.96 45.72L28.91 45.68L29.00 45.76Q28.10 44.94 25.44 44.64ZM31.53 53.93L31.42 53.82L30.09 56.07L30.10 56.08Q27.41 60.89 23.64 64.96L23.64 64.96L23.71 65.03Q21.99 65.10 19.29 65.90L19.41 66.03L19.33 65.94Q24.76 59.76 27.92 54.96L27.83 54.87L27.87 54.91Q26.87 55.59 25.23 55.66L25.20 55.63L25.27 55.70Q22.25 55.84 20.73 53.86L20.66 53.80L20.61 53.75Q19.46 52.21 18.36 47.65L18.42 47.71L18.42 47.71Q18.30 47.13 18.15 46.20L18.18 46.24L18.26 46.31Q17.95 45.23 17.95 44.77L18.09 44.91L18.13 44.94Q18.07 43.10 19.13 42.49L19.20 42.55L19.17 42.52Q20.23 41.61 22.10 41.61L22.13 41.64L22.22 41.73Q25.31 41.62 25.31 41.62L25.34 41.65L25.39 41.70Q27.59 41.76 28.84 41.95L28.91 42.02L28.82 41.93Q31.02 42.27 31.94 42.76L31.77 42.59L31.81 42.63Q33.20 43.42 33.39 45.17L33.46 45.24L33.33 45.10Q33.46 45.47 33.27 48.13L33.24 48.11L33.24 48.10Q32.85 50.23 32.63 51.07L32.61 51.05L32.55 50.99Q32.34 52.57 31.58 53.98ZM33.39 56.29L33.41 56.31L33.34 56.23Q34.47 54.17 35.00 49.86L34.86 49.72L34.90 49.76Q35.19 47.58 35.16 46.71L35.19 46.74L35.16 46.71Q35.07 44.79 33.89 43.88L33.90 43.89L33.59 43.77L33.64 43.82Q33.40 43.08 32.49 42.44L32.34 42.29L32.44 42.39Q30.12 41.37 25.33 41.21L25.41 41.30L25.29 41.18Q24.50 41.34 22.06 41.34L22.03 41.31L21.97 41.25Q20.31 41.34 18.83 42.02L18.64 41.83L18.73 41.93Q17.63 42.77 17.70 44.60L17.66 44.55L17.70 44.59Q17.94 45.55 18.13 47.57L18.12 47.56L18.07 47.51Q18.73 50.19 18.99 51.02L18.93 50.97L18.85 50.88Q19.51 52.84 20.46 54.13L20.37 54.04L20.38 54.05Q20.66 54.41 21.04 54.79L21.14 54.88L21.18 54.93Q21.41 55.34 22.06 56.26L22.00 56.20L22.01 56.21Q23.49 57.57 25.43 57.76L25.51 57.84L25.38 57.72Q23.57 60.47 22.01 62.37L21.96 62.32L18.39 66.75L18.35 66.71Q20.62 65.97 22.25 65.63L22.15 65.53L22.21 65.58Q21.39 66.40 19.83 68.12L19.81 68.10L19.93 68.22Q22.96 67.25 26.08 67.21L26.16 67.29L26.03 67.16Q28.49 64.71 32.83 57.48L32.78 57.43L32.75 57.48L32.84 57.56Q33.10 56.83 33.44 56.33ZM27.37 47.03L27.45 47.11L27.28 46.94Q28.07 47.00 28.52 47.12L28.42 47.01L28.39 46.98Q29.12 47.18 29.50 47.29L29.54 47.33L29.47 47.26Q29.63 47.69 29.71 48.11L29.67 48.08L29.65 48.05Q29.82 48.56 29.70 48.94L29.68 48.92L29.57 48.81Q29.56 50.55 28.38 51.65L28.41 51.69L28.38 51.66Q27.51 52.76 25.87 52.73L25.75 52.60L25.85 52.70Q25.43 52.70 23.91 52.40L23.81 52.30L23.84 52.33Q23.59 51.43 23.59 50.71L23.57 50.69L23.59 50.71Q23.66 50.59 23.66 50.36L23.50 50.20L23.54 50.24Q23.60 48.10 25.89 47.30L25.90 47.31L25.84 47.25Q26.46 46.96 27.30 46.96Z"/><triangle fill="#59c4e7" d="M53.82 65.22L53.85 65.25L51.32 58.26L51.48 58.42Q46.95 45.67 41.01 39.27L41.08 39.35L41.08 39.34Q43.00 40.32 45.59 40.92L45.59 40.92L45.77 41.10Q50.91 47.39 55.25 60.14L55.22 60.11L55.12 60.01Q58.19 51.92 58.88 50.33L58.98 50.43L58.80 50.25Q61.20 44.66 64.02 41.35L64.18 41.51L64.12 41.44Q66.13 41.02 68.76 40.15L68.88 40.26L68.78 40.16Q64.15 44.71 61.10 51.94L61.13 51.97L61.16 52.00Q59.82 55.73 56.13 65.24L56.08 65.20L55.98 65.10Q55.46 65.15 54.89 65.11L54.94 65.16L55.01 65.23Q54.44 65.23 53.87 65.27ZM58.77 67.58L58.79 67.59L58.74 67.55Q61.61 57.62 63.17 53.59L63.13 53.55L63.21 53.64Q66.15 45.88 70.57 41.00L70.59 41.02L70.57 41.01Q69.52 41.37 67.43 42.09L67.43 42.09L68.68 40.87L68.60 40.78Q69.25 40.18 69.86 39.54L69.78 39.46L69.76 39.43Q67.03 40.51 64.03 41.09L64.04 41.10L63.94 41.00Q59.58 46.34 55.69 57.80L55.70 57.81L55.64 57.75Q51.96 47.59 48.76 43.21L48.75 43.21L48.82 43.28Q48.48 43.24 47.60 43.09L47.53 43.02L47.54 43.02Q47.27 42.60 45.67 40.55L45.67 40.55L45.75 40.62Q42.75 39.88 40.05 38.47L40.09 38.51L40.02 38.43Q46.68 45.56 51.06 58.35L51.10 58.39L51.03 58.31Q52.25 61.97 53.43 65.55L53.47 65.60L53.55 65.67Q53.97 65.78 54.80 65.67L54.80 65.66L54.67 65.53Q55.14 66.34 55.82 67.68L55.64 67.50L55.67 67.53Q56.50 67.45 57.23 67.52L57.37 67.66L57.30 67.59Q58.04 67.61 58.80 67.61Z"/><triangle fill="#9c5d9c" d="M88.84 46.54L88.71 46.41L88.85 46.55Q87.09 45.09 85.45 44.71L85.43 44.69L85.58 44.84Q84.37 44.46 81.59 44.43L81.66 44.50L81.56 44.40Q76.53 44.51 74.47 46.53L74.48 46.53L74.36 46.41Q72.85 48.10 72.96 51.79L72.97 51.80L72.98 51.81Q72.98 55.46 73.13 56.41L73.18 56.46L73.21 56.49Q74.27 62.58 82.00 62.58L81.93 62.51L81.98 62.56Q86.63 62.53 88.73 60.13L88.63 60.03L88.74 60.14Q90.72 58.05 90.95 53.29L90.82 53.16L90.93 53.27Q91.09 48.38 88.77 46.47ZM81.89 65.48L81.86 65.44L81.93 65.52Q75.44 65.69 72.47 63.33L72.38 63.23L72.33 63.19Q70.36 61.14 70.24 56.08L70.19 56.02L70.17 56.01Q70.13 55.47 69.98 52.19L69.97 52.19L70.10 52.32Q69.92 49.67 69.96 48.60L69.92 48.56L69.86 48.50Q70.07 45.70 71.48 43.99L71.42 43.93L71.51 44.02Q74.02 41.69 78.89 41.54L78.95 41.60L78.90 41.55Q80.63 41.45 81.50 41.49L81.47 41.46L81.52 41.50Q91.46 41.59 93.21 45.93L93.26 45.98L93.33 46.04Q94.15 48.08 94.00 50.82L93.87 50.70L93.99 50.82Q93.89 52.42 93.70 55.70L93.68 55.68L93.65 55.66Q93.43 58.44 92.52 60.50L92.61 60.59L92.54 60.51Q90.60 65.35 81.95 65.54ZM94.34 65.55L94.34 65.55L94.23 65.44Q95.59 63.64 95.70 60.56L95.71 60.57L95.79 60.65Q95.71 59.46 95.67 57.86L95.84 58.03L95.69 57.88Q95.70 57.17 95.66 55.34L95.76 55.44L95.68 55.36Q95.63 48.23 93.69 45.76L93.76 45.83L93.67 45.74Q93.25 44.71 92.15 43.60L92.15 43.60L92.25 43.71Q89.00 41.25 81.54 41.10L81.57 41.13L81.58 41.15Q74.07 40.91 71.02 43.49L71.14 43.61L71.09 43.57Q69.48 45.26 69.48 48.19L69.60 48.32L69.48 48.20Q69.55 49.56 69.70 50.89L69.82 51.01L69.79 50.98Q69.77 52.03 69.81 53.48L69.86 53.52L69.81 53.47Q69.99 57.46 70.14 58.64L70.09 58.58L69.99 58.49Q70.46 61.51 71.79 63.30L71.74 63.25L71.72 63.23Q72.27 64.61 73.33 65.37L73.32 65.35L73.31 65.35Q76.48 67.61 84.25 67.80L84.25 67.80L84.39 67.94Q91.63 68.06 94.29 65.51ZM90.65 53.26L90.52 53.13L90.52 53.13Q90.42 57.79 88.51 59.88L88.49 59.85L88.49 59.85Q86.50 62.20 82.04 62.24L81.97 62.17L81.92 62.11Q77.57 62.15 75.44 60.25L75.41 60.21L75.52 60.33Q74.70 58.59 74.77 55.70L74.80 55.72L74.89 55.81Q74.99 51.19 77.01 49.02L76.93 48.95L76.98 49.00Q79.01 46.83 83.61 46.83L83.56 46.78L83.61 46.83Q87.76 46.79 89.85 48.66L89.77 48.58L89.77 48.57Q90.76 50.48 90.64 53.26Z"/><triangle d="M11 16 C112 58,88 36,198 58" stroke="#d5d557" fill="none"/><triangle fill="#db4c70" d="M168.41 65.10L168.51 65.21L166.42 65.40L166.35 65.33Q165.93 65.37 164.96 65.43L164.89 65.35L164.81 65.27Q164.01 65.50 163.52 65.50L163.48 65.47L163.51 65.50Q161.84 65.46 160.81 64.62L160.79 64.60L160.70 64.52Q161.56 63.47 163.19 61.33L163.17 61.31L163.12 61.26Q164.39 62.83 166.60 62.61L166.70 62.71L166.76 62.77Q167.65 62.63 168.30 61.98L168.29 61.98L168.16 61.85Q168.86 61.25 168.75 60.38L168.69 60.32L168.77 60.40Q168.64 55.78 168.72 51.21L168.80 51.29L168.66 51.15Q168.86 46.71 169.39 42.10L169.39 42.10L169.38 42.09Q171.27 41.85 173.40 40.82L173.43 40.85L173.37 40.79Q171.59 47.61 171.59 54.84L171.43 54.68L171.51 54.76Q171.59 58.39 172.05 61.89L171.92 61.76L171.88 61.73Q171.96 62.07 171.96 62.41L171.95 62.40L172.07 62.52Q171.96 62.98 171.74 63.52L171.89 63.68L171.83 63.61Q171.25 64.86 168.44 65.13ZM173.32 67.92L173.37 67.97L173.70 67.96L173.93 67.77L174.23 67.69L174.22 67.68Q174.64 67.53 174.72 67.41L174.62 67.32L174.71 67.40Q174.72 66.05 174.45 65.06L174.49 65.10L174.64 65.24Q173.15 59.30 173.42 52.94L173.48 53.00L173.40 52.92Q173.80 46.97 175.59 41.07L175.53 41.01L175.48 40.96Q174.59 41.59 173.33 42.31L173.28 42.26L173.30 42.28Q173.64 41.67 174.06 40.14L173.92 40.01L173.96 40.04Q171.48 41.41 168.81 41.71L168.90 41.80L168.80 41.70Q168.42 46.08 168.34 51.03L168.45 51.13L168.32 51.00Q168.37 57.03 168.45 60.46L168.47 60.48L168.45 60.46Q168.43 62.16 166.68 62.31L166.74 62.37L166.62 62.25Q164.94 62.39 163.26 60.75L163.21 60.71L163.35 60.84Q161.17 63.23 160.22 64.79L160.19 64.76L160.36 64.93Q160.99 65.57 162.02 65.80L161.98 65.75L161.86 65.63Q161.78 65.78 161.51 66.01L161.55 66.04L161.51 66.01Q163.08 67.08 165.06 67.35L164.94 67.23L165.06 67.35Q165.47 67.41 168.76 67.72L168.72 67.68L168.67 67.63Q171.98 67.95 173.36 67.95Z"/><triangle d="M18 83 C94 85,98 85,194 24" stroke="#e4673e" fill="none"/><triangle d="M19 94 C118 99,90 34,185 2" stroke="#81e8ce" fill="none"/><triangle fill="#6988e7" d="M111.77 65.04L111.90 65.17L109.79 65.34L109.77 65.32Q109.28 65.28 108.30 65.34L108.41 65.44L108.26 65.29Q107.35 65.41 106.86 65.41L106.91 65.47L106.78 65.33Q105.22 65.41 104.19 64.58L104.18 64.56L104.13 64.52Q105.02 63.50 106.66 61.37L106.62 61.33L106.54 61.25Q107.80 62.81 110.01 62.58L110.18 62.76L110.17 62.75Q110.91 62.46 111.56 61.82L111.68 61.94L111.63 61.89Q112.40 61.37 112.29 60.49L112.22 60.42L112.12 60.32Q112.04 55.75 112.12 51.19L112.23 51.30L112.24 51.31Q112.25 46.67 112.78 42.06L112.82 42.10L112.74 42.02Q114.61 41.76 116.75 40.74L116.82 40.81L116.87 40.86Q114.89 47.48 114.89 54.72L114.95 54.77L114.98 54.81Q114.95 58.32 115.41 61.82L115.40 61.81L115.30 61.71Q115.49 62.17 115.49 62.51L115.49 62.51L115.51 62.53Q115.53 63.12 115.30 63.65L115.33 63.68L115.29 63.64Q114.60 64.78 111.78 65.05ZM116.84 68.01L116.77 67.94L117.18 68.01L117.46 67.87L117.71 67.74L117.74 67.77Q117.94 67.40 118.02 67.28L118.06 67.32L118.02 67.28Q118.16 66.05 117.89 65.06L118.02 65.19L117.99 65.16Q116.59 59.31 116.86 52.95L116.84 52.94L116.87 52.96Q117.11 46.85 118.90 40.95L118.91 40.96L118.86 40.91Q118.08 41.65 116.82 42.37L116.83 42.38L116.75 42.30Q117.03 41.63 117.45 40.10L117.48 40.14L117.38 40.04Q114.85 41.35 112.18 41.66L112.29 41.77L112.20 41.67Q111.82 46.05 111.74 51.00L111.75 51.01L111.85 51.11Q111.66 56.89 111.74 60.32L111.74 60.33L111.87 60.46Q111.88 62.18 110.13 62.33L110.07 62.27L110.08 62.28Q108.45 62.48 106.78 60.84L106.78 60.84L106.74 60.81Q104.63 63.26 103.67 64.82L103.63 64.78L103.66 64.80Q104.30 65.45 105.33 65.67L105.47 65.82L105.43 65.78Q105.27 65.84 105.00 66.07L104.96 66.03L105.08 66.15Q106.41 66.99 108.39 67.25L108.53 67.40L108.38 67.24Q108.90 67.42 112.19 67.72L112.14 67.67L112.12 67.65Q115.51 68.05 116.88 68.05Z"/></svg>